<svg xmlns="http://www.w3.org/2000/svg" viewBox="0 0 200 200">
  <defs>
    <radialGradient id="bg" cx="50%" cy="50%" r="50%">
      <stop offset="0%" stop-color="#0a8a9e" stop-opacity="0.3"/>
      <stop offset="100%" stop-color="#0a8a9e" stop-opacity="0"/>
    </radialGradient>
  </defs>
  <circle cx="100" cy="100" r="90" fill="url(#bg)"/>
  <g transform="translate(100,100) scale(0.65)">
    <path d="M-50,-5 Q-40,-25 -15,-28 Q10,-30 30,-20 Q50,-12 65,-5 Q75,0 85,5 Q75,10 60,8 Q40,5 20,10 Q0,15 -15,15 Q-35,15 -45,8 Q-55,0 -50,-5Z" fill="#00e5ff" opacity="0.8"/>
    <path d="M65,-5 Q80,-8 90,0 Q80,8 60,8Z" fill="#00b8d4" opacity="0.9"/>
    <path d="M-15,-15 Q-5,-22 5,-20" stroke="#00e5ff" stroke-width="1.5" fill="none" opacity="0.4"/>
    <circle cx="-25" cy="-5" r="2.5" fill="white" opacity="0.9"/>
    <circle cx="-21" cy="-5" r="1.2" fill="#0a0e14"/>
  </g>
</svg>
