<svg xmlns="http://www.w3.org/2000/svg" viewBox="0 0 200 200">
  <defs>
    <radialGradient id="bg" cx="50%" cy="50%" r="50%">
      <stop offset="0%" stop-color="#6a0a4a" stop-opacity="0.3"/>
      <stop offset="100%" stop-color="#6a0a4a" stop-opacity="0"/>
    </radialGradient>
  </defs>
  <circle cx="100" cy="100" r="90" fill="url(#bg)"/>
  <g transform="translate(100,90) scale(0.6)">
    <path d="M-30,-20 Q-35,-5 -25,12 Q-10,25 0,28 Q10,25 25,12 Q35,-5 30,-20 Q15,-30 0,-32 Q-15,-30 -30,-20Z" fill="#ff4081" opacity="0.6"/>
    <path d="M-30,-20 Q-35,-5 -25,12 Q-10,25 0,28 Q10,25 25,12 Q35,-5 30,-20" fill="none" stroke="#ff80ab" stroke-width="0.5" opacity="0.5"/>
    <path d="M-20,12 Q-22,30 -18,45" fill="none" stroke="#ff80ab" stroke-width="1" opacity="0.5"/>
    <path d="M-10,22 Q-12,35 -8,50" fill="none" stroke="#ff80ab" stroke-width="1" opacity="0.5"/>
    <path d="M0,28 Q-2,42 2,55" fill="none" stroke="#ff80ab" stroke-width="1" opacity="0.5"/>
    <path d="M10,22 Q12,35 8,50" fill="none" stroke="#ff80ab" stroke-width="1" opacity="0.5"/>
    <path d="M20,12 Q22,30 18,45" fill="none" stroke="#ff80ab" stroke-width="1" opacity="0.5"/>
    <circle cx="0" cy="-10" r="2" fill="white" opacity="0.6"/>
    <circle cx="-8" cy="-15" r="1.5" fill="white" opacity="0.4"/>
    <circle cx="8" cy="-15" r="1.5" fill="white" opacity="0.4"/>
  </g>
</svg>
