<svg xmlns="http://www.w3.org/2000/svg" viewBox="0 0 200 200">
  <defs>
    <radialGradient id="bg" cx="50%" cy="50%" r="50%">
      <stop offset="0%" stop-color="#0a6a3a" stop-opacity="0.3"/>
      <stop offset="100%" stop-color="#0a6a3a" stop-opacity="0"/>
    </radialGradient>
  </defs>
  <circle cx="100" cy="100" r="90" fill="url(#bg)"/>
  <g transform="translate(100,100) scale(0.65)">
    <ellipse cx="0" cy="0" rx="45" ry="35" fill="#4caf50" opacity="0.7"/>
    <ellipse cx="0" cy="0" rx="35" ry="28" fill="#66bb6a" opacity="0.5"/>
    <path d="M0,-28 Q10,-32 15,-25 Q10,-20 0,-22Z" fill="#388e3c" opacity="0.6"/>
    <path d="M-45,0 Q-55,-10 -60,0 Q-55,10 -45,0Z" fill="#4caf50" opacity="0.8"/>
    <path d="M45,0 Q55,-10 60,0 Q55,10 45,0Z" fill="#4caf50" opacity="0.8"/>
    <path d="M-35,15 Q-40,25 -30,30 Q-25,20 -35,15Z" fill="#4caf50" opacity="0.8"/>
    <path d="M35,15 Q40,25 30,30 Q25,20 35,15Z" fill="#4caf50" opacity="0.8"/>
    <circle cx="-10" cy="-5" r="2.5" fill="white" opacity="0.9"/>
    <circle cx="-6" cy="-5" r="1.2" fill="#0a0e14"/>
  </g>
</svg>
